# xmcd
#
# Track frame offsets: 
#        150
#        12112
#        25387
#        38254
#        53059
#        64495
#        75481
#        88798
#        100589
#        114020
#        127565
#        139700
#        155600
#        167862
#        179844
#        193554
#        205341
#        219972
#        231216
#        244014
#        256773
#        273442
#        284846
#        295599
#        305062
#        317315
#        329658
#        344785
#
# Disc length: 4740 seconds
#
# Revision: 0
# Processed by: cddbd v1.5.2PL0 Copyright (c) Steve Scherf et al.
# Submitted via: ExactAudioCopy v0.99pb3
#
DISCID=8f12821c
DTITLE=Various Artist - Memphis Blues (Important Postwar Blues) [CDC)
DYEAR=2006
DGENRE=Blues
TTITLE0=Rosco Gordon - T-Model Boogie
TTITLE1=Rosco Gordon - Saddled The Cow (And Milked The Horse)
TTITLE2=Willie Nix - Seems Like A Millon Years (Take 1)
TTITLE3=Willie Nix - Riding In The Moonlight
TTITLE4=L.B. Lawson - Can't Love Me And My Money Too
TTITLE5=L.B. Lawson - Flypaper Boogie
TTITLE6=Little Milton - Somebody Told Me
TTITLE7=Little Milton - If You Love Me
TTITLE8=Little Milton - Feelin' Good
TTITLE9=Little Milton - Fussin' And Fightin' Blues
TTITLE10=Billy 'Red' Love - Hart's Bread Boogie
TTITLE11=Billy 'Red' Love - Blues Leave Me Alone
TTITLE12=Joe Hill Louis - She Comes To See Me Sometime (take 1)
TTITLE13=Joe Hill Louis - We All Gotta Go Sometime
TTITLE14=Honeyboy Edwards - Sweet Home Chicago (take 1)
TTITLE15=Mose Vinson - Mistreating Boogie
TTITLE16=Mose Vinson - Worry You Off My Mind
TTITLE17=L.C. Hubert - Lucy Done Moved
TTITLE18=Eddie Snow - Don't Dog Me Around
TTITLE19=Eddie Snow - Skin And Bone (Take 1)
TTITLE20=Johnny O'Neal - Dead Letter Blues (take 1)
TTITLE21=Johnny O'Neal - Ugly Woman (take 3)
TTITLE22=Houston Stokes - You'll Be Sorry
TTITLE23=Houston Stokes - Blue And Lonsome
TTITLE24=Raymond Hill - Long Gone Raymond
TTITLE25=Raymond Hill - I'm Back Pretty Baby
TTITLE26=Kenneth Banks - Blue Man (take 1)
TTITLE27=Kenneth Banks - High (take 1)
EXTD=
EXTT0=
EXTT1=
EXTT2=
EXTT3=
EXTT4=
EXTT5=
EXTT6=
EXTT7=
EXTT8=
EXTT9=
EXTT10=
EXTT11=
EXTT12=
EXTT13=
EXTT14=
EXTT15=
EXTT16=
EXTT17=
EXTT18=
EXTT19=
EXTT20=
EXTT21=
EXTT22=
EXTT23=
EXTT24=
EXTT25=
EXTT26=
EXTT27=
PLAYORDER=
